<svg width="1080" height="427" viewBox="0 0 1080 427" fill="none" xmlns="http://www.w3.org/2000/svg">
<path d="M0 0H1080V427H0V0Z" fill="#0F0F0F"/>
<path d="M215.032 382C215.16 379.28 215.416 376.784 215.8 374.512C216.216 372.24 216.792 370.112 217.528 368.128C218.264 366.112 219.208 364.128 220.36 362.176C221.544 360.224 222.968 358.208 224.632 356.128H208.168V351.472H230.728V354.832C228.744 357.072 227.128 359.2 225.88 361.216C224.632 363.2 223.64 365.232 222.904 367.312C222.2 369.36 221.688 371.568 221.368 373.936C221.048 376.304 220.808 378.992 220.648 382H215.032Z" fill="white"/>
<path d="M238.005 382V350.608H248.325C250.629 350.608 252.677 350.912 254.469 351.52C256.261 352.128 257.669 353.136 258.693 354.544C259.749 355.952 260.277 357.872 260.277 360.304C260.277 362.608 259.749 364.512 258.693 366.016C257.669 367.52 256.245 368.64 254.421 369.376C252.629 370.112 250.597 370.48 248.325 370.48H243.573V382H238.005ZM243.573 366.016H247.893C250.229 366.016 251.957 365.536 253.077 364.576C254.229 363.616 254.805 362.192 254.805 360.304C254.805 358.32 254.213 356.96 253.029 356.224C251.877 355.456 250.165 355.072 247.893 355.072H243.573V366.016Z" fill="white"/>
<path d="M265.682 382V350.608H271.827L275.57 362.848L276.866 367.552H277.059L278.306 362.848L282.099 350.608H288.242V382H283.346V369.328C283.346 368.496 283.363 367.52 283.395 366.4C283.459 365.248 283.538 364.048 283.634 362.8C283.73 361.552 283.827 360.384 283.923 359.296C284.019 358.176 284.099 357.232 284.163 356.464H284.018L281.906 363.76L278.451 373.696H275.283L271.875 363.76L269.81 356.464H269.667C269.763 357.232 269.858 358.176 269.954 359.296C270.05 360.384 270.13 361.552 270.194 362.8C270.29 364.048 270.355 365.248 270.387 366.4C270.451 367.52 270.483 368.496 270.483 369.328V382H265.682Z" fill="white"/>
<path d="M801.528 382.576C799.512 382.576 797.736 382.24 796.2 381.568C794.696 380.864 793.416 380.048 792.36 379.12L795.336 375.76C796.072 376.4 796.936 376.944 797.928 377.392C798.952 377.84 800.008 378.064 801.096 378.064C802.6 378.064 803.96 377.68 805.176 376.912C806.424 376.144 807.432 374.864 808.2 373.072C809 371.28 809.4 368.848 809.4 365.776C809.4 363.28 809.096 361.248 808.488 359.68C807.912 358.08 807.112 356.928 806.088 356.224C805.064 355.488 803.88 355.12 802.536 355.12C801.544 355.12 800.616 355.344 799.752 355.792C798.92 356.24 798.248 356.896 797.736 357.76C797.224 358.592 796.968 359.632 796.968 360.88C796.968 362.704 797.448 364.08 798.408 365.008C799.4 365.904 800.76 366.352 802.488 366.352C803.576 366.352 804.712 366.064 805.896 365.488C807.112 364.912 808.28 363.936 809.4 362.56L809.64 366.448C808.456 367.632 807.128 368.576 805.656 369.28C804.184 369.984 802.76 370.336 801.384 370.336C799.528 370.336 797.88 370 796.44 369.328C795.032 368.624 793.912 367.584 793.08 366.208C792.28 364.8 791.88 363.024 791.88 360.88C791.88 358.864 792.36 357.104 793.32 355.6C794.312 354.096 795.608 352.944 797.208 352.144C798.84 351.312 800.584 350.896 802.44 350.896C804.072 350.896 805.608 351.2 807.048 351.808C808.488 352.384 809.768 353.28 810.888 354.496C812.008 355.712 812.888 357.264 813.528 359.152C814.168 361.008 814.488 363.216 814.488 365.776C814.488 368.752 814.12 371.312 813.384 373.456C812.68 375.568 811.72 377.296 810.504 378.64C809.288 379.984 807.896 380.976 806.328 381.616C804.792 382.256 803.192 382.576 801.528 382.576Z" fill="white"/>
<path d="M822.005 382V350.608H832.325C834.629 350.608 836.677 350.912 838.469 351.52C840.261 352.128 841.669 353.136 842.693 354.544C843.749 355.952 844.277 357.872 844.277 360.304C844.277 362.608 843.749 364.512 842.693 366.016C841.669 367.52 840.245 368.64 838.421 369.376C836.629 370.112 834.597 370.48 832.325 370.48H827.573V382H822.005ZM827.573 366.016H831.893C834.229 366.016 835.957 365.536 837.077 364.576C838.229 363.616 838.805 362.192 838.805 360.304C838.805 358.32 838.213 356.96 837.029 356.224C835.877 355.456 834.165 355.072 831.893 355.072H827.573V366.016Z" fill="white"/>
<path d="M849.682 382V350.608H855.826L859.57 362.848L860.867 367.552H861.058L862.307 362.848L866.099 350.608H872.242V382H867.346V369.328C867.346 368.496 867.363 367.52 867.395 366.4C867.459 365.248 867.539 364.048 867.635 362.8C867.731 361.552 867.826 360.384 867.922 359.296C868.018 358.176 868.098 357.232 868.162 356.464H868.018L865.906 363.76L862.451 373.696H859.282L855.875 363.76L853.81 356.464H853.667C853.763 357.232 853.859 358.176 853.955 359.296C854.051 360.384 854.131 361.552 854.195 362.8C854.291 364.048 854.354 365.248 854.386 366.4C854.45 367.52 854.482 368.496 854.482 369.328V382H849.682Z" fill="white"/>
<path d="M75.992 382V362.56C76.024 361.664 76.072 360.656 76.136 359.536C76.2 358.416 76.248 357.408 76.28 356.512H76.04C75.528 357.312 74.984 358.112 74.408 358.912C73.864 359.712 73.336 360.528 72.824 361.36L66.392 369.856H85.496V374.128H60.776V370.384L74.792 351.424H81.176V382H75.992Z" fill="white"/>
<path d="M92.0052 382V350.608H102.325C104.629 350.608 106.677 350.912 108.469 351.52C110.261 352.128 111.669 353.136 112.693 354.544C113.749 355.952 114.277 357.872 114.277 360.304C114.277 362.608 113.749 364.512 112.693 366.016C111.669 367.52 110.245 368.64 108.421 369.376C106.629 370.112 104.597 370.48 102.325 370.48H97.5732V382H92.0052ZM97.5732 366.016H101.893C104.229 366.016 105.957 365.536 107.077 364.576C108.229 363.616 108.805 362.192 108.805 360.304C108.805 358.32 108.213 356.96 107.029 356.224C105.877 355.456 104.165 355.072 101.893 355.072H97.5732V366.016Z" fill="white"/>
<path d="M119.683 382V350.608H125.826L129.57 362.848L130.867 367.552H131.059L132.307 362.848L136.098 350.608H142.243V382H137.346V369.328C137.346 368.496 137.363 367.52 137.395 366.4C137.459 365.248 137.539 364.048 137.635 362.8C137.731 361.552 137.827 360.384 137.923 359.296C138.019 358.176 138.099 357.232 138.163 356.464H138.018L135.906 363.76L132.451 373.696H129.283L125.874 363.76L123.811 356.464H123.667C123.763 357.232 123.858 358.176 123.954 359.296C124.05 360.384 124.131 361.552 124.195 362.8C124.291 364.048 124.354 365.248 124.386 366.4C124.45 367.52 124.482 368.496 124.482 369.328V382H119.683Z" fill="white"/>
<path d="M328.385 93V61.608H336.641C339.713 61.608 342.353 62.184 344.561 63.336C346.801 64.488 348.497 66.216 349.649 68.52C350.833 70.824 351.425 73.704 351.425 77.16C351.425 80.648 350.833 83.576 349.649 85.944C348.497 88.28 346.833 90.04 344.657 91.224C342.481 92.408 339.905 93 336.929 93H328.385ZM333.953 88.488H336.305C338.321 88.488 340.017 88.088 341.393 87.288C342.801 86.456 343.873 85.208 344.609 83.544C345.345 81.88 345.713 79.752 345.713 77.16C345.713 74.6 345.345 72.504 344.609 70.872C343.873 69.24 342.801 68.04 341.393 67.272C340.017 66.504 338.321 66.12 336.305 66.12H333.953V88.488Z" fill="white"/>
<path d="M354.382 93L364.558 61.608H371.086L381.262 93H375.358L370.606 76.296C370.158 74.632 369.678 72.92 369.166 71.16C368.686 69.4 368.238 67.656 367.822 65.928H367.63C367.182 67.656 366.718 69.4 366.238 71.16C365.79 72.92 365.326 74.632 364.846 76.296L360.046 93H354.382ZM360.382 84.504V80.136H375.118V84.504H360.382Z" fill="white"/>
<path d="M386.235 93V88.296H393.819V66.312H386.235V61.608H406.971V66.312H399.387V88.296H406.971V93H386.235Z" fill="white"/>
<path d="M416.744 93V61.608H422.264V88.296H437V93H416.744Z" fill="white"/>
<path d="M451.382 93V82.104L441.062 61.608H446.966L450.95 70.056C451.494 71.24 452.022 72.424 452.534 73.608C453.046 74.792 453.59 76.024 454.166 77.304H454.358C454.902 76.024 455.446 74.792 455.99 73.608C456.566 72.424 457.126 71.224 457.67 70.008L461.51 61.608H467.27L456.95 82.104V93H451.382Z" fill="white"/>
<path d="M501.552 93V61.608H511.872C514.176 61.608 516.224 61.912 518.016 62.52C519.808 63.128 521.216 64.136 522.24 65.544C523.296 66.952 523.824 68.872 523.824 71.304C523.824 73.608 523.296 75.512 522.24 77.016C521.216 78.52 519.792 79.64 517.968 80.376C516.176 81.112 514.144 81.48 511.872 81.48H507.12V93H501.552ZM507.12 77.016H511.44C513.776 77.016 515.504 76.536 516.624 75.576C517.776 74.616 518.352 73.192 518.352 71.304C518.352 69.32 517.76 67.96 516.576 67.224C515.424 66.456 513.712 66.072 511.44 66.072H507.12V77.016Z" fill="white"/>
<path d="M530.141 93V61.608H540.605C542.781 61.608 544.733 61.896 546.461 62.472C548.221 63.048 549.613 64.024 550.637 65.4C551.661 66.744 552.173 68.584 552.173 70.92C552.173 73.16 551.661 75 550.637 76.44C549.613 77.88 548.221 78.952 546.461 79.656C544.733 80.36 542.781 80.712 540.605 80.712H535.709V93H530.141ZM535.709 76.296H540.029C542.205 76.296 543.853 75.848 544.973 74.952C546.125 74.056 546.701 72.712 546.701 70.92C546.701 69.128 546.125 67.88 544.973 67.176C543.853 66.44 542.205 66.072 540.029 66.072H535.709V76.296ZM539.597 79.224L543.629 75.912L553.421 93H547.133L539.597 79.224Z" fill="white"/>
<path d="M569.291 93.576C566.859 93.576 564.715 92.936 562.859 91.656C561.003 90.376 559.547 88.52 558.491 86.088C557.467 83.656 556.955 80.68 556.955 77.16C556.955 73.736 557.467 70.824 558.491 68.424C559.547 65.992 561.003 64.152 562.859 62.904C564.715 61.656 566.859 61.032 569.291 61.032C571.723 61.032 573.867 61.656 575.723 62.904C577.579 64.152 579.019 65.992 580.043 68.424C581.099 70.824 581.627 73.736 581.627 77.16C581.627 80.68 581.099 83.656 580.043 86.088C579.019 88.52 577.579 90.376 575.723 91.656C573.867 92.936 571.723 93.576 569.291 93.576ZM569.291 88.728C570.635 88.728 571.803 88.28 572.795 87.384C573.787 86.488 574.555 85.176 575.099 83.448C575.643 81.72 575.915 79.624 575.915 77.16C575.915 74.76 575.643 72.728 575.099 71.064C574.555 69.368 573.787 68.088 572.795 67.224C571.803 66.328 570.635 65.88 569.291 65.88C567.947 65.88 566.779 66.328 565.787 67.224C564.795 68.088 564.027 69.368 563.483 71.064C562.939 72.728 562.667 74.76 562.667 77.16C562.667 79.624 562.939 81.72 563.483 83.448C564.027 85.176 564.795 86.488 565.787 87.384C566.779 88.28 567.947 88.728 569.291 88.728Z" fill="white"/>
<path d="M599.992 93.576C597.368 93.576 594.984 92.952 592.84 91.704C590.728 90.456 589.048 88.632 587.8 86.232C586.584 83.8 585.976 80.856 585.976 77.4C585.976 73.976 586.6 71.048 587.848 68.616C589.096 66.152 590.792 64.28 592.936 63C595.08 61.688 597.512 61.032 600.232 61.032C602.312 61.032 604.072 61.448 605.512 62.28C606.984 63.08 608.184 63.976 609.112 64.968L606.04 68.424C605.336 67.656 604.52 67.048 603.592 66.6C602.696 66.12 601.576 65.88 600.232 65.88C598.568 65.88 597.096 66.344 595.816 67.272C594.536 68.168 593.528 69.464 592.792 71.16C592.088 72.856 591.736 74.888 591.736 77.256C591.736 79.624 592.056 81.672 592.696 83.4C593.368 85.128 594.344 86.456 595.624 87.384C596.904 88.28 598.472 88.728 600.328 88.728C601.16 88.728 601.96 88.616 602.728 88.392C603.496 88.136 604.104 87.784 604.552 87.336V80.568H599.128V76.008H609.592V89.832C608.568 90.856 607.208 91.736 605.512 92.472C603.848 93.208 602.008 93.576 599.992 93.576Z" fill="white"/>
<path d="M616.485 93V61.608H626.949C629.125 61.608 631.077 61.896 632.805 62.472C634.565 63.048 635.957 64.024 636.981 65.4C638.005 66.744 638.517 68.584 638.517 70.92C638.517 73.16 638.005 75 636.981 76.44C635.957 77.88 634.565 78.952 632.805 79.656C631.077 80.36 629.125 80.712 626.949 80.712H622.053V93H616.485ZM622.053 76.296H626.373C628.549 76.296 630.197 75.848 631.317 74.952C632.469 74.056 633.045 72.712 633.045 70.92C633.045 69.128 632.469 67.88 631.317 67.176C630.197 66.44 628.549 66.072 626.373 66.072H622.053V76.296ZM625.941 79.224L629.973 75.912L639.765 93H633.477L625.941 79.224Z" fill="white"/>
<path d="M646.178 93V61.608H666.29V66.312H651.746V74.328H664.082V79.032H651.746V88.296H666.77V93H646.178Z" fill="white"/>
<path d="M684.512 93.576C682.304 93.576 680.192 93.176 678.176 92.376C676.16 91.576 674.368 90.44 672.8 88.968L676.064 85.176C677.248 86.232 678.592 87.096 680.096 87.768C681.6 88.408 683.184 88.728 684.848 88.728C686.672 88.728 688.064 88.376 689.024 87.672C689.984 86.936 690.464 86.024 690.464 84.936C690.464 84.008 690.24 83.272 689.792 82.728C689.344 82.152 688.72 81.672 687.92 81.288C687.152 80.904 686.24 80.504 685.184 80.088L680.912 78.216C679.824 77.768 678.752 77.192 677.696 76.488C676.672 75.784 675.824 74.888 675.152 73.8C674.512 72.712 674.192 71.4 674.192 69.864C674.192 68.2 674.656 66.712 675.584 65.4C676.512 64.056 677.792 63 679.424 62.232C681.088 61.432 682.976 61.032 685.088 61.032C687.008 61.032 688.832 61.4 690.56 62.136C692.32 62.84 693.856 63.8 695.168 65.016L692.288 68.568C691.232 67.704 690.112 67.048 688.928 66.6C687.776 66.12 686.4 65.88 684.8 65.88C683.328 65.88 682.128 66.2 681.2 66.84C680.272 67.48 679.808 68.392 679.808 69.576C679.808 70.376 680.064 71.032 680.576 71.544C681.088 72.056 681.744 72.504 682.544 72.888C683.376 73.272 684.256 73.64 685.184 73.992L689.312 75.768C690.656 76.28 691.84 76.904 692.864 77.64C693.888 78.376 694.688 79.288 695.264 80.376C695.84 81.432 696.128 82.728 696.128 84.264C696.128 85.96 695.664 87.512 694.736 88.92C693.808 90.328 692.48 91.464 690.752 92.328C689.024 93.16 686.944 93.576 684.512 93.576Z" fill="white"/>
<path d="M713.293 93.576C711.085 93.576 708.973 93.176 706.957 92.376C704.941 91.576 703.149 90.44 701.581 88.968L704.845 85.176C706.029 86.232 707.373 87.096 708.877 87.768C710.381 88.408 711.965 88.728 713.629 88.728C715.453 88.728 716.845 88.376 717.805 87.672C718.765 86.936 719.245 86.024 719.245 84.936C719.245 84.008 719.021 83.272 718.573 82.728C718.125 82.152 717.501 81.672 716.701 81.288C715.933 80.904 715.021 80.504 713.965 80.088L709.693 78.216C708.605 77.768 707.533 77.192 706.477 76.488C705.453 75.784 704.605 74.888 703.933 73.8C703.293 72.712 702.973 71.4 702.973 69.864C702.973 68.2 703.437 66.712 704.365 65.4C705.293 64.056 706.573 63 708.205 62.232C709.869 61.432 711.757 61.032 713.869 61.032C715.789 61.032 717.613 61.4 719.341 62.136C721.101 62.84 722.637 63.8 723.949 65.016L721.069 68.568C720.013 67.704 718.893 67.048 717.709 66.6C716.557 66.12 715.181 65.88 713.581 65.88C712.109 65.88 710.909 66.2 709.981 66.84C709.053 67.48 708.589 68.392 708.589 69.576C708.589 70.376 708.845 71.032 709.357 71.544C709.869 72.056 710.525 72.504 711.325 72.888C712.157 73.272 713.037 73.64 713.965 73.992L718.093 75.768C719.437 76.28 720.621 76.904 721.645 77.64C722.669 78.376 723.469 79.288 724.045 80.376C724.621 81.432 724.909 82.728 724.909 84.264C724.909 85.96 724.445 87.512 723.517 88.92C722.589 90.328 721.261 91.464 719.533 92.328C717.805 93.16 715.725 93.576 713.293 93.576Z" fill="white"/>
<path d="M741.978 77.256C740.634 77.256 739.498 76.792 738.57 75.864C737.674 74.936 737.226 73.784 737.226 72.408C737.226 71 737.674 69.848 738.57 68.952C739.498 68.024 740.634 67.56 741.978 67.56C743.354 67.56 744.49 68.024 745.386 68.952C746.282 69.848 746.73 71 746.73 72.408C746.73 73.784 746.282 74.936 745.386 75.864C744.49 76.792 743.354 77.256 741.978 77.256ZM741.978 93.576C740.634 93.576 739.498 93.112 738.57 92.184C737.674 91.256 737.226 90.104 737.226 88.728C737.226 87.32 737.674 86.168 738.57 85.272C739.498 84.344 740.634 83.88 741.978 83.88C743.354 83.88 744.49 84.344 745.386 85.272C746.282 86.168 746.73 87.32 746.73 88.728C746.73 90.104 746.282 91.256 745.386 92.184C744.49 93.112 743.354 93.576 741.978 93.576Z" fill="white"/>
<path d="M939.224 382V377.488H947.72V357.424H940.952V353.968C942.232 353.776 943.352 353.568 944.312 353.344C945.272 353.12 946.136 352.848 946.904 352.528C947.704 352.208 948.472 351.856 949.208 351.472H953.24V377.488H960.728V382H939.224Z" fill="white"/>
<path d="M978.181 382.576C975.877 382.576 973.877 381.952 972.181 380.704C970.485 379.456 969.173 377.648 968.245 375.28C967.317 372.912 966.853 370.016 966.853 366.592C966.853 361.44 967.877 357.536 969.925 354.88C971.973 352.224 974.725 350.896 978.181 350.896C981.669 350.896 984.421 352.224 986.437 354.88C988.485 357.536 989.509 361.44 989.509 366.592C989.509 370.016 989.045 372.912 988.117 375.28C987.221 377.648 985.925 379.456 984.229 380.704C982.533 381.952 980.517 382.576 978.181 382.576ZM978.181 378.256C979.397 378.256 980.485 377.872 981.445 377.104C982.405 376.304 983.157 375.056 983.701 373.36C984.245 371.632 984.517 369.376 984.517 366.592C984.517 363.808 984.245 361.584 983.701 359.92C983.157 358.256 982.405 357.056 981.445 356.32C980.485 355.584 979.397 355.216 978.181 355.216C976.965 355.216 975.877 355.584 974.917 356.32C973.957 357.056 973.205 358.256 972.661 359.92C972.117 361.584 971.845 363.808 971.845 366.592C971.845 369.376 972.117 371.632 972.661 373.36C973.205 375.056 973.957 376.304 974.917 377.104C975.877 377.872 976.965 378.256 978.181 378.256ZM978.181 369.808C977.285 369.808 976.501 369.504 975.829 368.896C975.189 368.288 974.869 367.456 974.869 366.4C974.869 365.344 975.189 364.512 975.829 363.904C976.501 363.296 977.285 362.992 978.181 362.992C979.109 362.992 979.893 363.296 980.533 363.904C981.173 364.512 981.493 365.344 981.493 366.4C981.493 367.456 981.173 368.288 980.533 368.896C979.893 369.504 979.109 369.808 978.181 369.808Z" fill="white"/>
<path d="M996.786 382V350.608H1007.11C1009.41 350.608 1011.46 350.912 1013.25 351.52C1015.04 352.128 1016.45 353.136 1017.47 354.544C1018.53 355.952 1019.06 357.872 1019.06 360.304C1019.06 362.608 1018.53 364.512 1017.47 366.016C1016.45 367.52 1015.03 368.64 1013.2 369.376C1011.41 370.112 1009.38 370.48 1007.11 370.48H1002.35V382H996.786ZM1002.35 366.016H1006.67C1009.01 366.016 1010.74 365.536 1011.86 364.576C1013.01 363.616 1013.59 362.192 1013.59 360.304C1013.59 358.32 1012.99 356.96 1011.81 356.224C1010.66 355.456 1008.95 355.072 1006.67 355.072H1002.35V366.016Z" fill="white"/>
<path d="M1024.46 382V350.608H1030.61L1034.35 362.848L1035.65 367.552H1035.84L1037.09 362.848L1040.88 350.608H1047.02V382H1042.13V369.328C1042.13 368.496 1042.14 367.52 1042.18 366.4C1042.24 365.248 1042.32 364.048 1042.42 362.8C1042.51 361.552 1042.61 360.384 1042.7 359.296C1042.8 358.176 1042.88 357.232 1042.94 356.464H1042.8L1040.69 363.76L1037.23 373.696H1034.06L1030.66 363.76L1028.59 356.464H1028.45C1028.54 357.232 1028.64 358.176 1028.74 359.296C1028.83 360.384 1028.91 361.552 1028.98 362.8C1029.07 364.048 1029.14 365.248 1029.17 366.4C1029.23 367.52 1029.26 368.496 1029.26 369.328V382H1024.46Z" fill="white"/>
<path d="M366.312 382.576C364.68 382.576 363.144 382.288 361.704 381.712C360.264 381.104 358.984 380.192 357.864 378.976C356.744 377.76 355.864 376.208 355.224 374.32C354.584 372.432 354.264 370.208 354.264 367.648C354.264 364.704 354.616 362.176 355.32 360.064C356.056 357.92 357.032 356.176 358.248 354.832C359.464 353.488 360.856 352.496 362.424 351.856C363.992 351.216 365.608 350.896 367.272 350.896C369.288 350.896 371.048 351.232 372.552 351.904C374.088 352.576 375.368 353.392 376.392 354.352L373.416 357.712C372.712 357.04 371.848 356.496 370.824 356.08C369.832 355.632 368.792 355.408 367.704 355.408C366.232 355.408 364.856 355.792 363.576 356.56C362.328 357.328 361.32 358.608 360.552 360.4C359.784 362.192 359.4 364.608 359.4 367.648C359.4 370.176 359.688 372.224 360.264 373.792C360.84 375.36 361.64 376.512 362.664 377.248C363.72 377.984 364.92 378.352 366.264 378.352C367.256 378.352 368.168 378.128 369 377.68C369.864 377.232 370.536 376.576 371.016 375.712C371.528 374.848 371.784 373.792 371.784 372.544C371.784 370.72 371.304 369.36 370.344 368.464C369.384 367.568 368.024 367.12 366.264 367.12C365.208 367.12 364.072 367.408 362.856 367.984C361.672 368.528 360.504 369.504 359.352 370.912L359.16 367.024C360.344 365.776 361.672 364.816 363.144 364.144C364.616 363.44 366.04 363.088 367.416 363.088C369.24 363.088 370.872 363.44 372.312 364.144C373.752 364.816 374.872 365.856 375.672 367.264C376.504 368.672 376.92 370.432 376.92 372.544C376.92 374.592 376.424 376.368 375.432 377.872C374.472 379.376 373.192 380.544 371.592 381.376C369.992 382.176 368.232 382.576 366.312 382.576Z" fill="white"/>
<path d="M384.005 382V350.608H394.325C396.629 350.608 398.677 350.912 400.469 351.52C402.261 352.128 403.669 353.136 404.693 354.544C405.749 355.952 406.277 357.872 406.277 360.304C406.277 362.608 405.749 364.512 404.693 366.016C403.669 367.52 402.245 368.64 400.421 369.376C398.629 370.112 396.597 370.48 394.325 370.48H389.573V382H384.005ZM389.573 366.016H393.893C396.229 366.016 397.957 365.536 399.077 364.576C400.229 363.616 400.805 362.192 400.805 360.304C400.805 358.32 400.213 356.96 399.029 356.224C397.877 355.456 396.165 355.072 393.893 355.072H389.573V366.016Z" fill="white"/>
<path d="M411.682 382V350.608H417.827L421.57 362.848L422.866 367.552H423.059L424.306 362.848L428.099 350.608H434.242V382H429.346V369.328C429.346 368.496 429.363 367.52 429.395 366.4C429.459 365.248 429.538 364.048 429.634 362.8C429.73 361.552 429.827 360.384 429.923 359.296C430.019 358.176 430.099 357.232 430.163 356.464H430.018L427.906 363.76L424.451 373.696H421.283L417.875 363.76L415.81 356.464H415.667C415.763 357.232 415.858 358.176 415.954 359.296C416.05 360.384 416.13 361.552 416.194 362.8C416.29 364.048 416.355 365.248 416.387 366.4C416.451 367.52 416.483 368.496 416.483 369.328V382H411.682Z" fill="white"/>
<path d="M657.448 382.576C655.112 382.576 653.096 382.224 651.4 381.52C649.704 380.784 648.392 379.792 647.464 378.544C646.536 377.264 646.072 375.808 646.072 374.176C646.072 372.864 646.36 371.728 646.936 370.768C647.544 369.776 648.312 368.928 649.24 368.224C650.168 367.488 651.176 366.864 652.264 366.352V366.16C650.984 365.328 649.896 364.336 649 363.184C648.136 362 647.704 360.608 647.704 359.008C647.704 357.376 648.12 355.952 648.952 354.736C649.816 353.488 650.984 352.544 652.456 351.904C653.96 351.232 655.672 350.896 657.592 350.896C660.632 350.896 663.016 351.664 664.744 353.2C666.504 354.704 667.384 356.688 667.384 359.152C667.384 360.56 666.936 361.872 666.04 363.088C665.144 364.272 664.072 365.28 662.824 366.112V366.304C663.944 366.848 664.936 367.472 665.8 368.176C666.696 368.848 667.4 369.68 667.912 370.672C668.456 371.664 668.728 372.864 668.728 374.272C668.728 375.84 668.28 377.248 667.384 378.496C666.52 379.744 665.24 380.736 663.544 381.472C661.88 382.208 659.848 382.576 657.448 382.576ZM659.704 364.768C661.72 363.136 662.728 361.376 662.728 359.488C662.728 358.592 662.52 357.792 662.104 357.088C661.72 356.384 661.128 355.84 660.328 355.456C659.56 355.04 658.616 354.832 657.496 354.832C656.088 354.832 654.92 355.2 653.992 355.936C653.064 356.672 652.6 357.696 652.6 359.008C652.6 360.032 652.904 360.896 653.512 361.6C654.152 362.272 655 362.864 656.056 363.376C657.144 363.856 658.36 364.32 659.704 364.768ZM657.544 378.64C659.4 378.64 660.856 378.24 661.912 377.44C662.968 376.64 663.496 375.52 663.496 374.08C663.496 373.216 663.288 372.48 662.872 371.872C662.456 371.264 661.864 370.736 661.096 370.288C660.328 369.84 659.432 369.44 658.408 369.088C657.384 368.704 656.264 368.304 655.048 367.888C654.248 368.336 653.544 368.848 652.936 369.424C652.328 370 651.848 370.64 651.496 371.344C651.144 372.016 650.968 372.768 650.968 373.6C650.968 374.624 651.24 375.52 651.784 376.288C652.328 377.024 653.096 377.6 654.088 378.016C655.08 378.432 656.232 378.64 657.544 378.64Z" fill="white"/>
<path d="M676.005 382V350.608H686.325C688.629 350.608 690.677 350.912 692.469 351.52C694.261 352.128 695.669 353.136 696.693 354.544C697.749 355.952 698.277 357.872 698.277 360.304C698.277 362.608 697.749 364.512 696.693 366.016C695.669 367.52 694.245 368.64 692.421 369.376C690.629 370.112 688.597 370.48 686.325 370.48H681.573V382H676.005ZM681.573 366.016H685.893C688.229 366.016 689.957 365.536 691.077 364.576C692.229 363.616 692.805 362.192 692.805 360.304C692.805 358.32 692.213 356.96 691.029 356.224C689.877 355.456 688.165 355.072 685.893 355.072H681.573V366.016Z" fill="white"/>
<path d="M703.682 382V350.608H709.826L713.57 362.848L714.867 367.552H715.058L716.307 362.848L720.099 350.608H726.242V382H721.346V369.328C721.346 368.496 721.363 367.52 721.395 366.4C721.459 365.248 721.539 364.048 721.635 362.8C721.731 361.552 721.826 360.384 721.922 359.296C722.018 358.176 722.098 357.232 722.162 356.464H722.018L719.906 363.76L716.451 373.696H713.282L709.875 363.76L707.81 356.464H707.667C707.763 357.232 707.859 358.176 707.955 359.296C708.051 360.384 708.131 361.552 708.195 362.8C708.291 364.048 708.354 365.248 708.386 366.4C708.45 367.52 708.482 368.496 708.482 369.328V382H703.682Z" fill="white"/>
<path d="M507.032 382C507.16 379.28 507.416 376.784 507.8 374.512C508.216 372.24 508.792 370.112 509.528 368.128C510.264 366.112 511.208 364.128 512.36 362.176C513.544 360.224 514.968 358.208 516.632 356.128H500.168V351.472H522.728V354.832C520.744 357.072 519.128 359.2 517.88 361.216C516.632 363.2 515.64 365.232 514.904 367.312C514.2 369.36 513.688 371.568 513.368 373.936C513.048 376.304 512.808 378.992 512.648 382H507.032Z" fill="white"/>
<path d="M530.005 382V350.608H540.325C542.629 350.608 544.677 350.912 546.469 351.52C548.261 352.128 549.669 353.136 550.693 354.544C551.749 355.952 552.277 357.872 552.277 360.304C552.277 362.608 551.749 364.512 550.693 366.016C549.669 367.52 548.245 368.64 546.421 369.376C544.629 370.112 542.597 370.48 540.325 370.48H535.573V382H530.005ZM535.573 366.016H539.893C542.229 366.016 543.957 365.536 545.077 364.576C546.229 363.616 546.805 362.192 546.805 360.304C546.805 358.32 546.213 356.96 545.029 356.224C543.877 355.456 542.165 355.072 539.893 355.072H535.573V366.016Z" fill="white"/>
<path d="M557.682 382V350.608H563.826L567.57 362.848L568.867 367.552H569.058L570.307 362.848L574.099 350.608H580.242V382H575.346V369.328C575.346 368.496 575.363 367.52 575.395 366.4C575.459 365.248 575.539 364.048 575.635 362.8C575.731 361.552 575.826 360.384 575.922 359.296C576.018 358.176 576.098 357.232 576.162 356.464H576.018L573.906 363.76L570.451 373.696H567.282L563.875 363.76L561.81 356.464H561.667C561.763 357.232 561.859 358.176 561.955 359.296C562.051 360.384 562.131 361.552 562.195 362.8C562.291 364.048 562.354 365.248 562.386 366.4C562.45 367.52 562.482 368.496 562.482 369.328V382H557.682Z" fill="white"/>
<path d="M102 224.5C102 229.747 97.7467 234 92.5 234C87.2533 234 83 229.747 83 224.5C83 219.253 87.2533 215 92.5 215C97.7467 215 102 219.253 102 224.5Z" fill="#F0F0F0"/>
<path d="M550 272.5C550 277.747 545.747 282 540.5 282C535.253 282 531 277.747 531 272.5C531 267.253 535.253 263 540.5 263C545.747 263 550 267.253 550 272.5Z" fill="#FC6F6F"/>
<path d="M988 253.5C988 258.747 983.747 263 978.5 263C973.253 263 969 258.747 969 253.5C969 248.253 973.253 244 978.5 244C983.747 244 988 248.253 988 253.5Z" fill="#FC6F6F"/>
<path d="M842 197.5C842 202.747 837.747 207 832.5 207C827.253 207 823 202.747 823 197.5C823 192.253 827.253 188 832.5 188C837.747 188 842 192.253 842 197.5Z" fill="#26E939"/>
<path d="M696 291.5C696 296.747 691.747 301 686.5 301C681.253 301 677 296.747 677 291.5C677 286.253 681.253 282 686.5 282C691.747 282 696 286.253 696 291.5Z" fill="#FC6F6F"/>
<path d="M404 224.5C404 229.747 399.747 234 394.5 234C389.253 234 385 229.747 385 224.5C385 219.253 389.253 215 394.5 215C399.747 215 404 219.253 404 224.5Z" fill="#FC6F6F"/>
<path d="M258 178.5C258 183.747 253.747 188 248.5 188C243.253 188 239 183.747 239 178.5C239 173.253 243.253 169 248.5 169C253.747 169 258 173.253 258 178.5Z" fill="#26E939"/>
</svg>
